<?xml version="1.0" encoding="UTF-8"?><svg id="Layer_2" xmlns="http://www.w3.org/2000/svg" viewBox="0 0 32.69 37.73"><defs><style>.cls-1{fill:#fff;}</style></defs><g id="Camada_1"><g><path class="cls-1" d="M16.15,31.08c3.09,.03,5.41-1.3,6.8-4.07,1.72-3.44,.37-7.65-3.01-9.54-.08-.04-.16-.1-.24-.13-.31-.11-.4-.3-.35-.63,.05-.36,.05-.72,.05-1.08,0-.99-.4-1.83-1-2.58-.03-.04-.08-.07-.11-.11-.04,.05,0,.1,.02,.15,.49,.93,.54,1.94,.51,2.96-.01,.43-.14,.82-.33,1.19-.25,.5-.62,.78-1.2,.88-3.36,.58-6.66,1.4-9.96,2.23-2.3,.58-4.61,1.11-6.92,1.66-.09,.02-.18,.05-.27,.06-.05,0-.13,0-.14-.03-.02-.04,0-.1,.03-.15,.04-.08,.09-.16,.14-.23,1.8-2.81,3.41-5.73,4.96-8.67,.19-.36,.44-.64,.78-.88,2.66-1.88,5.29-3.81,7.77-5.94,2.04-1.76,3.88-3.7,5.53-5.82,.08-.1,.16-.2,.24-.3,.02-.03,.06-.06,.08-.06,.07,0,.06,.07,.05,.12-.03,.14-.06,.28-.08,.43-.41,2.16-1.23,4.16-2.26,6.09-.39,.72-.37,.72,.45,.74,6.64,.17,12.44,4.59,14.34,10.96,2.04,6.82-.82,14.04-6.92,17.65-.92,.55-1.89,.99-2.9,1.34-.3,.1-.55,.08-.83-.05-1.24-.55-2.3-1.36-3.31-2.26-1.13-1.01-2.12-2.13-2.93-3.41-.07-.11-.13-.22-.2-.32-.08-.14-.1-.23,.12-.22,.36,.02,.72,0,1.09,0ZM11.04,13.39c-.03-.29-.06-.58-.09-.86,0-.07-.03-.14-.05-.21-.03-.14-.11-.18-.24-.11-.08,.04-.15,.09-.23,.15-1.71,1.19-3.11,2.69-4.35,4.35-.19,.25-.15,.32,.19,.33,1.43,.04,2.71-.39,3.79-1.33,.7-.61,1.01-1.39,.97-2.32Z"/><path class="cls-1" d="M15.43,37.64c-1.44-.16-2.87-.38-4.26-.8-2.23-.66-4.12-1.91-5.84-3.45-2.43-2.18-3.96-4.91-4.84-8.03-.1-.35-.09-.35,.28-.39,2.33-.22,4.63-.58,6.89-1.18,1.33-.35,2.63-.79,3.91-1.3,.17-.07,.34-.13,.51-.19,.03-.01,.07,0,.1,.01,.06,.04,.04,.09,.01,.14-.06,.11-.13,.22-.2,.32-.21,.34-.42,.68-.61,1.03-1.01,1.76-1.25,3.63-.92,5.61,.46,2.74,1.74,5,3.84,6.8,.54,.46,1.08,.91,1.61,1.37,.04,.04,.14,.05,.1,.14,0,.01-.1-.01-.15-.02-.14-.02-.29-.04-.43-.06Z"/></g></g></svg>