<?xml version="1.0" encoding="UTF-8"?><svg id="Layer_3" xmlns="http://www.w3.org/2000/svg" viewBox="0 0 38 38"><defs><style>.cls-1{fill:#fff;}</style></defs><g id="Camada_1"><g><path class="cls-1" d="M18.82,31c3.03,.03,5.31-1.28,6.68-4,1.69-3.38,.36-7.51-2.96-9.37-.08-.04-.16-.1-.24-.13-.3-.11-.39-.29-.34-.62,.05-.35,.05-.71,.05-1.06,0-.97-.39-1.8-.98-2.53-.03-.04-.08-.07-.11-.11-.04,.05,0,.1,.02,.15,.48,.91,.53,1.9,.5,2.91,0,.42-.14,.81-.32,1.17-.25,.49-.61,.77-1.18,.86-3.3,.57-6.54,1.37-9.78,2.19-2.26,.57-4.53,1.09-6.79,1.63-.09,.02-.18,.05-.27,.06-.05,0-.13,0-.14-.03-.02-.04,0-.1,.03-.15,.04-.08,.09-.16,.14-.23,1.77-2.76,3.35-5.63,4.87-8.51,.19-.35,.43-.63,.77-.86,2.61-1.85,5.19-3.74,7.63-5.83,2-1.73,3.81-3.63,5.43-5.71l.24-.29s.06-.06,.08-.06c.07,0,.06,.07,.05,.12-.03,.14-.06,.27-.08,.42-.4,2.12-1.21,4.08-2.22,5.98-.38,.71-.36,.71,.44,.73,6.52,.17,12.21,4.51,14.08,10.76,2,6.7-.81,13.78-6.79,17.33-.9,.54-1.86,.97-2.85,1.32-.29,.1-.54,.08-.81-.05-1.22-.54-2.26-1.34-3.25-2.22-1.11-.99-2.08-2.09-2.88-3.35-.07-.11-.13-.22-.2-.31-.08-.14-.1-.23,.12-.22,.35,.02,.71,0,1.07,0v.02ZM13.8,13.63c-.03-.28-.06-.57-.09-.84,0-.07-.03-.14-.05-.21-.03-.14-.11-.18-.24-.11-.08,.04-.15,.09-.23,.15-1.68,1.17-3.05,2.64-4.27,4.27-.19,.25-.15,.31,.19,.32,1.4,.04,2.66-.38,3.72-1.31,.69-.6,.99-1.36,.95-2.28h0Z"/><path class="cls-1" d="M18.11,37.44c-1.41-.16-2.82-.37-4.18-.79-2.19-.65-4.05-1.88-5.73-3.39-2.39-2.14-3.89-4.82-4.75-7.88-.1-.34-.09-.34,.27-.38,2.29-.22,4.55-.57,6.76-1.16,1.31-.34,2.58-.78,3.84-1.28,.17-.07,.33-.13,.5-.19,.03,0,.07,0,.1,0,.06,.04,.04,.09,0,.14-.06,.11-.13,.22-.2,.31-.21,.33-.41,.67-.6,1.01-.99,1.73-1.23,3.56-.9,5.51,.45,2.69,1.71,4.91,3.77,6.68,.53,.45,1.06,.89,1.58,1.35,.04,.04,.14,.05,.1,.14,0,0-.1,0-.15-.02-.14-.02-.28-.04-.42-.06Z"/></g></g></svg>