<?xml version="1.0" encoding="UTF-8"?><svg id="Layer_2" xmlns="http://www.w3.org/2000/svg" viewBox="0 0 39.2 39.2"><defs><style>.cls-1{fill:#fff;fill-rule:evenodd;}</style></defs><g id="Camada_1"><path class="cls-1" d="M7.86,31.08l6.29-1.82,5.43,9.93s.03,.01,.03,0l5.43-9.93,6.29,1.82s.03,0,.02-.02l-1.82-6.16,9.66-5.28s.01-.03,0-.03l-9.73-5.32,1.9-6.43s0-.03-.02-.02l-6.43,1.87L19.61,0s-.03-.01-.03,0l-5.28,9.66-6.43-1.87s-.03,0-.02,.02l1.9,6.43L0,19.58s-.01,.03,0,.03l9.66,5.28-1.82,6.16s0,.03,.02,.02Zm4.88-11.41l4.45,2.44,2.44,4.45s.03,.01,.03,0l2.44-4.45,4.45-2.44s.01-.03,0-.03l-4.45-2.44-2.44-4.45s-.03-.01-.03,0l-2.44,4.45-4.45,2.44s-.01,.03,0,.03Z"/></g></svg>