<?xml version="1.0" encoding="UTF-8"?><svg id="Layer_3" xmlns="http://www.w3.org/2000/svg" viewBox="0 0 38 38"><defs><style>.cls-1{fill:#fff;fill-rule:evenodd;}</style></defs><g id="Camada_1"><path class="cls-1" d="M7.91,29.85l5.94-1.72,5.13,9.38s.03,0,.03,0l5.13-9.38,5.94,1.72s.03,0,.02-.02l-1.72-5.82,9.13-4.99s0-.03,0-.03l-9.19-5.03,1.8-6.07s0-.03-.02-.02l-6.07,1.77L19.01,.49s-.03,0-.03,0l-4.99,9.13-6.07-1.77s-.03,0-.02,.02l1.8,6.07L.49,18.99s0,.03,0,.03l9.13,4.99-1.72,5.82s0,.03,.02,.02h0Zm4.61-10.77l4.2,2.31,2.31,4.2s.03,0,.03,0l2.31-4.2,4.2-2.31s0-.03,0-.03l-4.2-2.31-2.31-4.2s-.03,0-.03,0l-2.31,4.2-4.2,2.31s0,.03,0,.03Z"/></g></svg>