<?xml version="1.0" encoding="UTF-8"?><svg id="Layer_3" xmlns="http://www.w3.org/2000/svg" viewBox="0 0 38 38"><defs><style>.cls-1{fill:#fff;}</style></defs><g id="Camada_1"><path class="cls-1" d="M34.22,34.72c-.2-.11-.4-.23-.6-.34-.08-.04-.17-.09-.24-.13-.55-.32-1.01-.75-1.4-1.23-.55-.67-.64-1.41-.25-2.21,.11-.23,.3-.4,.46-.59,4.25-4.95,5.55-10.58,3.64-16.82C33.41,5.56,25.6,.29,16.92,1.28c-3.73,.42-7.06,1.87-9.81,4.43C2.19,10.31,.4,15.95,1.75,22.56c1.67,6.34,5.53,10.19,11.6,12.67,1.68,.58,3.67,1.05,5.41,1.33,1.34,.22,2.52,.27,3.87,.28h2.18c1.44,.01,2-.04,3.01-.13,2.18-.2,4.24-.82,6.24-1.69,.06-.03,.13-.06,.2-.08,.16-.07,.13-.13,0-.21h-.01ZM16.62,16.91c-.31,1.96-1.94,3.36-3.92,3.35-1.67,0-3.13-1.04-3.7-2.61-.56-1.56-.07-3.32,1.2-4.36,.09-.08,.2-.16,.3-.23,.23-.15,.27-.12,.3,.13,.06,.54,.2,1.06,.46,1.53,.93,1.76,3.03,2.55,4.91,1.8,.57-.23,.52-.08,.45,.37h0Zm4.74,.19c-.02-.12-.04-.25-.05-.37-.02-.32,.02-.35,.32-.23,.87,.37,1.76,.44,2.67,.19,1.51-.42,2.63-1.74,2.82-3.31,.01-.12-.06-.32,.12-.37,.15-.04,.26,.1,.37,.19,1.33,.98,1.9,2.77,1.38,4.35-.54,1.65-2.03,2.73-3.77,2.73-1.89,0-3.48-1.33-3.85-3.17h-.01Z"/></g></svg>