<?xml version="1.0" encoding="UTF-8"?><svg id="Layer_2" xmlns="http://www.w3.org/2000/svg" viewBox="0 0 34.14 34.43"><defs><style>.cls-1{fill:#fff;}</style></defs><g id="Camada_1"><path class="cls-1" d="M31.76,32.38c-.19-.11-.39-.22-.58-.33-.08-.04-.16-.09-.23-.13-.53-.31-.97-.72-1.35-1.19-.53-.65-.62-1.36-.24-2.13,.11-.22,.29-.39,.44-.57,4.1-4.78,5.36-10.21,3.51-16.23C30.98,4.24,23.44-.84,15.06,.11c-3.6,.41-6.81,1.8-9.47,4.28C.85,8.83-.88,14.27,.42,20.65c1.61,6.12,5.34,9.83,11.19,12.23,1.62,.56,3.54,1.01,5.22,1.28,1.29,.21,2.43,.26,3.73,.27,.65,0,1.33,0,2.1,0,1.39,.01,1.93-.04,2.9-.13,2.1-.19,4.09-.79,6.02-1.63,.06-.03,.13-.06,.19-.08,.15-.07,.13-.13,0-.2ZM14.78,15.2c-.3,1.89-1.87,3.24-3.78,3.23-1.61,0-3.02-1-3.57-2.52-.54-1.51-.07-3.2,1.16-4.21,.09-.08,.19-.15,.29-.22,.22-.14,.26-.12,.29,.13,.06,.52,.19,1.02,.44,1.48,.9,1.7,2.92,2.46,4.74,1.74,.55-.22,.5-.08,.43,.36Zm4.57,.17c-.02-.12-.04-.24-.05-.36-.02-.31,.02-.34,.31-.22,.84,.36,1.7,.42,2.58,.18,1.46-.41,2.54-1.68,2.72-3.19,.01-.12-.06-.31,.12-.36,.14-.04,.25,.1,.36,.18,1.28,.95,1.83,2.67,1.33,4.2-.52,1.59-1.96,2.63-3.64,2.63-1.82,0-3.36-1.28-3.72-3.06Z"/></g></svg>