<?xml version="1.0" encoding="UTF-8"?><svg id="Layer_3" xmlns="http://www.w3.org/2000/svg" viewBox="0 0 38 38"><defs><style>.cls-1{fill:#fff;}</style></defs><g id="Camada_1"><path class="cls-1" d="M30.38,31.84c0,.19-.13,.31-.22,.45-1.52,2.25-3.58,3.76-6.22,4.48-1.78,.49-3.58,.83-5.44,.7-4.67-.33-8.54-2.19-11.22-6.15-1.31-1.94-1.95-4.12-2.13-6.45-.23-3.17,.44-6.17,1.58-9.1,.12-.3,.24-.59,.37-.89,.04-.07,.05-.21,.18-.18,.07,.02,.06,.13,.06,.19v.57c0,2.27,.2,4.5,.89,6.67,.22,.72,.49,1.43,.82,2.12,.04,.08,.07,.19,.19,.16,.03,0,.05-.14,.04-.2-.11-.94-.16-1.88-.18-2.83-.08-3.68,.85-7.01,3.45-9.73,.71-.75,1.47-1.48,2.32-2.09,.68-.48,1.31-1.02,1.88-1.63,1.09-1.15,1.62-2.53,1.7-4.1,.05-.97-.08-1.92-.27-2.88-.02-.11-.05-.22-.06-.33,0-.04,0-.1,.03-.1,.05,0,.1,0,.15,.02,.04,0,.06,.05,.08,.07,1.42,1.33,2.7,2.76,3.6,4.5,.8,1.55,1.13,3.2,1,4.94-.05,.56-.04,.57-.59,.72-1.63,.49-2.78,2.1-2.71,3.89,.07,1.67,1.2,3.15,2.82,3.58,2.04,.56,4.13-.7,4.68-2.8,.23-.89,.15-1.76-.06-2.64-.12-.5-.28-.98-.45-1.46-.04-.1-.14-.23-.03-.31,.09-.06,.2,.05,.31,.1,2.21,1.31,3.96,3.06,4.95,5.46,1.72,4.19,1.27,8.17-1.43,11.81-1.75,2.37-4.19,3.53-7.17,3.49-.36,0-.71-.06-1.08-.09-.09,0-.21,0-.25-.1-.05-.11,.07-.16,.14-.21,.12-.09,.24-.19,.35-.29,1.59-1.46,2.19-3.26,1.71-5.35-.46-2.05-1.76-3.41-3.81-3.96-2.66-.72-5.46,.93-6.23,3.67-.55,1.96-.1,3.72,1.19,5.25,1.57,1.88,3.62,2.87,6.05,3.09,2.36,.22,4.6-.27,6.77-1.11,.76-.29,1.49-.65,2.24-.97h0v.03Z"/></g></svg>