<?xml version="1.0" encoding="UTF-8"?><svg id="Layer_2" xmlns="http://www.w3.org/2000/svg" viewBox="0 0 29.94 39.84"><defs><style>.cls-1{fill:#fff;}</style></defs><g id="Camada_1"><path class="cls-1" d="M27.23,33.75c0,.2-.14,.33-.24,.48-1.64,2.42-3.86,4.05-6.7,4.83-1.92,.53-3.86,.89-5.86,.75-5.03-.36-9.2-2.36-12.09-6.62C.93,31.1,.24,28.75,.05,26.24c-.25-3.41,.47-6.65,1.7-9.8,.13-.32,.26-.64,.4-.96,.04-.08,.05-.23,.19-.19,.08,.02,.06,.14,.06,.21,0,.2,0,.41,0,.61,0,2.44,.22,4.85,.96,7.19,.24,.78,.53,1.54,.88,2.28,.04,.09,.08,.21,.2,.17,.03-.01,.05-.15,.04-.22-.12-1.01-.17-2.03-.19-3.05-.09-3.96,.92-7.55,3.72-10.48,.77-.81,1.58-1.59,2.5-2.25,.73-.52,1.41-1.1,2.03-1.76,1.17-1.24,1.75-2.73,1.83-4.42,.05-1.05-.09-2.07-.29-3.1-.02-.12-.05-.24-.06-.36,0-.04,.01-.11,.03-.11,.05,0,.11,0,.16,.02,.04,.01,.06,.05,.09,.08,1.53,1.43,2.91,2.97,3.88,4.85,.86,1.67,1.22,3.45,1.08,5.32-.05,.6-.04,.61-.64,.78-1.76,.53-3,2.26-2.92,4.19,.08,1.8,1.29,3.39,3.04,3.86,2.2,.6,4.45-.75,5.04-3.02,.25-.96,.16-1.9-.07-2.84-.13-.54-.3-1.06-.49-1.57-.04-.11-.15-.25-.03-.33,.1-.07,.22,.05,.33,.11,2.38,1.41,4.27,3.3,5.33,5.88,1.85,4.51,1.37,8.8-1.54,12.72-1.89,2.55-4.51,3.8-7.72,3.76-.39,0-.77-.06-1.16-.1-.1,0-.23,0-.27-.11-.05-.12,.08-.17,.15-.23,.13-.1,.26-.2,.38-.31,1.71-1.57,2.36-3.51,1.84-5.76-.5-2.21-1.9-3.67-4.1-4.27-2.86-.78-5.88,1-6.71,3.95-.59,2.11-.11,4.01,1.28,5.66,1.69,2.02,3.9,3.09,6.52,3.33,2.54,.24,4.95-.29,7.29-1.2,.82-.31,1.6-.7,2.41-1.05h0Z"/></g></svg>