<?xml version="1.0" encoding="UTF-8"?><svg id="Layer_2" xmlns="http://www.w3.org/2000/svg" viewBox="0 0 41.73 34.6"><defs><style>.cls-1{fill:#fff;}</style></defs><g id="Camada_1"><g><polygon class="cls-1" points="9.96 12.46 19.91 17.31 9.96 22.14 0 17.31 9.96 12.46"/><g><polygon class="cls-1" points="31.78 12.46 21.82 17.31 31.78 22.14 41.73 17.31 31.78 12.46"/><polygon class="cls-1" points="31.78 0 21.82 5.24 21.82 15.5 21.9 15.47 21.9 15.47 22.04 15.39 31.77 10.55 31.77 10.55 31.78 10.55 31.78 0"/></g><polygon class="cls-1" points="31.78 34.6 21.82 29.36 21.82 19.1 21.9 19.14 21.9 19.14 22.04 19.21 31.77 24.05 31.77 24.05 31.78 24.05 31.78 34.6"/><polygon class="cls-1" points="9.96 0 19.91 5.24 19.91 15.5 19.84 15.47 19.84 15.47 19.7 15.39 9.96 10.55 9.96 10.55 9.96 10.55 9.96 0"/><polygon class="cls-1" points="9.96 34.6 19.91 29.36 19.91 19.1 19.84 19.14 19.84 19.14 19.7 19.21 9.96 24.05 9.96 24.05 9.96 24.05 9.96 34.6"/></g></g></svg>