<?xml version="1.0" encoding="UTF-8"?><svg id="Layer_3" xmlns="http://www.w3.org/2000/svg" viewBox="0 0 38 38"><defs><style>.cls-1{fill:#fff;}</style></defs><g id="Camada_1"><g><polygon class="cls-1" points="9.07 14.59 18.13 19.01 9.07 23.41 0 19.01 9.07 14.59"/><g><polygon class="cls-1" points="28.94 14.59 19.87 19.01 28.94 23.41 38 19.01 28.94 14.59"/><polygon class="cls-1" points="28.94 3.25 19.87 8.02 19.87 17.36 19.94 17.33 19.94 17.33 20.07 17.26 28.93 12.85 28.93 12.85 28.94 12.85 28.94 3.25"/></g><polygon class="cls-1" points="28.94 34.75 19.87 29.98 19.87 20.64 19.94 20.68 19.94 20.68 20.07 20.74 28.93 25.15 28.93 25.15 28.94 25.15 28.94 34.75"/><polygon class="cls-1" points="9.07 3.25 18.13 8.02 18.13 17.36 18.07 17.33 18.07 17.33 17.94 17.26 9.07 12.85 9.07 12.85 9.07 12.85 9.07 3.25"/><polygon class="cls-1" points="9.07 34.75 18.13 29.98 18.13 20.64 18.07 20.68 18.07 20.68 17.94 20.74 9.07 25.15 9.07 25.15 9.07 25.15 9.07 34.75"/></g></g></svg>