<?xml version="1.0" encoding="UTF-8"?><svg id="Layer_2" xmlns="http://www.w3.org/2000/svg" viewBox="0 0 30.77 34.25"><defs><style>.cls-1{fill:#fff;}</style></defs><g id="Camada_1"><g><path class="cls-1" d="M16.49,21.1c-.09-2.34,.56-4.77,1.38-7.17,.09-.25,.25-.35,.48-.4,.51-.1,1.01-.25,1.51-.43,2.13-.75,3.91-2.01,5.44-3.64,.08-.08,.15-.17,.23-.25,.34-.36,.34-.37,.68-.03,1.88,1.87,3.21,4.07,3.95,6.61,2.07,7.16-1.24,14.71-7.91,18.05-.18,.09-.37,.17-.56,.26-.43,.19-.42,.18-.74-.19-2.43-2.79-3.79-6.05-4.25-9.7-.12-.97-.2-1.93-.21-3.13Z"/><path class="cls-1" d="M14.31,20.99c-.08,3.16-.53,5.91-1.65,8.52-.71,1.64-1.72,3.1-2.87,4.46-.29,.34-.3,.34-.7,.16-3.5-1.61-6.07-4.15-7.7-7.65C.32,24.17-.13,21.72,.03,19.18c.26-3.86,1.77-7.18,4.49-9.93,.03-.03,.05-.05,.08-.08,.32-.3,.32-.3,.61,.01,.85,.95,1.79,1.8,2.86,2.5,1.29,.86,2.68,1.48,4.19,1.81,.4,.09,.6,.27,.72,.65,.51,1.58,1.01,3.17,1.18,4.83,.08,.78,.12,1.56,.15,2.01Z"/><path class="cls-1" d="M15.4,10.97c-3.19,0-5.77-1.25-7.87-3.53-.3-.33-.3-.34,.08-.57,.8-.48,1.65-.87,2.53-1.19,.18-.06,.35-.12,.53-.19,.27-.11,.28-.14,.11-.4-.06-.09-.13-.18-.2-.27-.71-.96-1.42-1.92-2.13-2.88-.11-.15-.23-.3-.31-.46-.23-.47-.09-1,.33-1.29,.41-.28,.91-.24,1.28,.12,.15,.14,.27,.31,.39,.48,.92,1.24,1.86,2.48,2.76,3.74,.22,.3,.44,.39,.8,.34,1.13-.16,2.27-.16,3.4,0,.37,.05,.58-.06,.79-.35,.93-1.28,1.88-2.55,2.83-3.83,.1-.13,.2-.27,.32-.39,.38-.37,.92-.39,1.33-.08,.39,.3,.5,.8,.27,1.26-.07,.15-.18,.28-.28,.42-.71,.96-1.42,1.92-2.13,2.88-.07,.09-.14,.18-.2,.27-.22,.32-.22,.33,.13,.46,.16,.06,.32,.11,.48,.16,.88,.32,1.72,.71,2.53,1.19,.39,.23,.4,.24,.11,.56-2.13,2.32-4.74,3.57-7.86,3.55Z"/></g></g></svg>