<?xml version="1.0" encoding="UTF-8"?><svg id="Layer_3" xmlns="http://www.w3.org/2000/svg" viewBox="0 0 38 38"><defs><style>.cls-1{fill:#fff;}</style></defs><g id="Camada_1"><g><path class="cls-1" d="M20.17,23.21c-.1-2.48,.59-5.06,1.46-7.6,.1-.27,.27-.37,.51-.42,.54-.11,1.07-.27,1.6-.46,2.26-.8,4.15-2.13,5.77-3.86,.08-.08,.16-.18,.24-.27,.36-.38,.36-.39,.72-.03,1.99,1.98,3.4,4.32,4.19,7.01,2.2,7.59-1.32,15.6-8.39,19.14-.19,.1-.39,.18-.59,.28-.46,.2-.45,.19-.78-.2-2.58-2.96-4.02-6.42-4.51-10.29-.13-1.03-.21-2.05-.22-3.32v.02Z"/><path class="cls-1" d="M17.86,23.1c-.08,3.35-.56,6.27-1.75,9.04-.75,1.74-1.82,3.29-3.04,4.73-.31,.36-.32,.36-.74,.17-3.71-1.71-6.44-4.4-8.17-8.11-1.13-2.45-1.61-5.05-1.44-7.74,.28-4.09,1.88-7.61,4.76-10.53l.08-.08q.34-.32,.65,.01c.9,1.01,1.9,1.91,3.03,2.65,1.37,.91,2.84,1.57,4.44,1.92,.42,.1,.64,.29,.76,.69,.54,1.68,1.07,3.36,1.25,5.12,.08,.83,.13,1.65,.16,2.13h0Z"/><path class="cls-1" d="M19.02,12.47c-3.38,0-6.12-1.33-8.35-3.74-.32-.35-.32-.36,.08-.6,.85-.51,1.75-.92,2.68-1.26,.19-.06,.37-.13,.56-.2,.29-.12,.3-.15,.12-.42-.06-.1-.14-.19-.21-.29l-2.26-3.05c-.12-.16-.24-.32-.33-.49-.24-.5-.1-1.06,.35-1.37,.43-.3,.97-.25,1.36,.13,.16,.15,.29,.33,.41,.51,.98,1.32,1.97,2.63,2.93,3.97,.23,.32,.47,.41,.85,.36,1.2-.17,2.41-.17,3.61,0,.39,.05,.62-.06,.84-.37,.99-1.36,1.99-2.7,3-4.06,.11-.14,.21-.29,.34-.41,.4-.39,.98-.41,1.41-.08,.41,.32,.53,.85,.29,1.34-.07,.16-.19,.3-.3,.45l-2.26,3.05c-.07,.1-.15,.19-.21,.29-.23,.34-.23,.35,.14,.49,.17,.06,.34,.12,.51,.17,.93,.34,1.82,.75,2.68,1.26,.41,.24,.42,.25,.12,.59-2.26,2.46-5.03,3.79-8.34,3.77h-.02Z"/></g></g></svg>