<?xml version="1.0" encoding="UTF-8"?><svg id="Layer_3" xmlns="http://www.w3.org/2000/svg" viewBox="0 0 38 38"><defs><style>.cls-1{fill:#fff;}</style></defs><g id="Camada_1"><g><path class="cls-1" d="M22.48,31.15H9.92c-.84,0-1.22-.22-1.22-1.2,0-7.31,0-14.63-.01-21.94v-.31c.03-.55,.31-.84,.86-.85,.4-.01,.81,0,1.21,0,.66,0,1.33,.03,1.99,0,1.05-.05,1.25,.38,1.24,1.22-.03,1.97,0,3.95,0,5.92v1.26c.01,.7,.26,.95,.95,.95h.42c.5-.03,.76-.29,.77-.8,.02-.61,0-1.22,0-1.83V7.76c.02-.6,.31-.88,.92-.89h3.4c.67,0,.95,.28,.95,.96v7.12c0,.2,0,.38,.02,.58,.06,.41,.32,.65,.74,.67,.23,.01,.45,.01,.68,0,.44-.03,.7-.28,.75-.72,.02-.18,.01-.35,.01-.53V7.72c.02-.65,.3-.95,.97-.95h3.3c.66,0,.95,.3,.95,.97v7.17c0,.2,0,.38,.02,.58,.06,.44,.32,.68,.76,.7,.23,.01,.45,.01,.68,0,.41-.03,.67-.27,.73-.68,.02-.19,.02-.38,.02-.58V7.75c.02-.62,.29-.89,.91-.9h3.46c.61,0,.89,.3,.92,.9v.31c0,7.26-.01,14.53-.02,21.78,0,.18,0,.35-.01,.53-.05,.46-.31,.72-.77,.76-.18,.02-.35,0-.53,0h-12.51l-.02,.02Z"/><path class="cls-1" d="M6.95,22.59v7.27c0,.2,0,.38-.02,.58-.05,.44-.29,.68-.73,.75-.12,.02-.25,0-.36,.02-.65,.07-1.04-.18-1.34-.8-.82-1.69-1.71-3.36-2.59-5.02-.15-.3-.25-.6-.25-.95v-3.72c0-.34,.07-.65,.23-.95,.92-1.77,1.83-3.52,2.73-5.3,.19-.37,.44-.56,.87-.54,.25,.01,.49,0,.73,.01,.45,.04,.72,.32,.76,.79,.01,.15,0,.31,0,.48v7.38h-.02Z"/></g></g></svg>