<?xml version="1.0" encoding="UTF-8"?><svg id="Layer_2" xmlns="http://www.w3.org/2000/svg" viewBox="0 0 33.58 23.68"><defs><style>.cls-1{fill:#fff;}</style></defs><g id="Camada_1"><g><path class="cls-1" d="M20.17,23.62c-4.05,0-8.11,0-12.16,0-.81,0-1.18-.21-1.18-1.16,0-7.08,0-14.16-.01-21.24,0-.1,0-.2,0-.3,.03-.53,.3-.81,.83-.82,.39-.01,.78,0,1.17,0,.64,0,1.29,.03,1.93,0,1.02-.05,1.21,.37,1.2,1.18-.03,1.91,0,3.82,0,5.73,0,.41,0,.81,0,1.22,.01,.68,.25,.92,.92,.92,.14,0,.27,0,.41,0,.48-.03,.74-.28,.75-.77,.02-.59,0-1.18,0-1.77,0-1.74,0-3.48,0-5.22,0-.14,0-.27,0-.41,.02-.58,.3-.85,.89-.86,.49,0,.98,0,1.47,0,.61,0,1.22,0,1.82,0,.65,0,.92,.27,.92,.93,0,2.3,0,4.6,0,6.89,0,.19,0,.37,.02,.56,.06,.4,.31,.63,.72,.65,.22,.01,.44,.01,.66,0,.43-.03,.68-.27,.73-.7,.02-.17,.01-.34,.01-.51,0-2.2,0-4.39,0-6.59,0-.14,0-.27,0-.41,.02-.63,.29-.92,.94-.92,1.06,0,2.13,0,3.19,0,.64,0,.92,.29,.92,.94,0,2.31,0,4.63,0,6.94,0,.19,0,.37,.02,.56,.06,.43,.31,.66,.74,.68,.22,.01,.44,.01,.66,0,.4-.03,.65-.26,.71-.66,.02-.18,.02-.37,.02-.56,0-2.16,0-4.33,0-6.49,0-.15,0-.3,0-.46,.02-.6,.28-.86,.88-.87,1.11,0,2.23,0,3.35,0,.59,0,.86,.29,.89,.87,0,.1,0,.2,0,.3,0,7.03-.01,14.06-.02,21.08,0,.17,0,.34-.01,.51-.05,.45-.3,.7-.75,.74-.17,.02-.34,0-.51,0-4.04,0-8.08,0-12.11,0Z"/><path class="cls-1" d="M5.14,15.33c0,2.35,0,4.69,0,7.04,0,.19,0,.37-.02,.56-.05,.43-.28,.66-.71,.73-.12,.02-.24,0-.35,.02-.63,.07-1.01-.17-1.3-.77-.79-1.64-1.66-3.25-2.51-4.86-.15-.29-.24-.58-.24-.92,0-1.2,0-2.4,0-3.6,0-.33,.07-.63,.22-.92,.89-1.71,1.77-3.41,2.64-5.13,.18-.36,.43-.54,.84-.52,.24,.01,.47,0,.71,.01,.44,.04,.7,.31,.74,.76,.01,.15,0,.3,0,.46,0,2.38,0,4.76,0,7.14h-.02Z"/></g></g></svg>