<?xml version="1.0" encoding="UTF-8"?><svg id="Layer_2" xmlns="http://www.w3.org/2000/svg" viewBox="0 0 35.48 27.88"><defs><style>.cls-1{fill:#fff;fill-rule:evenodd;}</style></defs><g id="Camada_1"><path class="cls-1" d="M27.4,13.19h0L29.65,.01s0-.01,.01-.01h.71s.01,0,.01,0l5.09,16.11s0,.01,0,.01l-3.75,2.93s-.01,0-.02,0l-4.31-5.87ZM0,21.93s0,.01,0,.01l7.74,2.53h.01L25.05,12.53h0L26.9,.08s0-.01-.01-.01H11.57L0,14.02h0v7.91Zm10.97,3.19l8.45,2.77h.01l10.06-7.22s0-.01,0-.02l-3.77-5.61s-.01,0-.02,0l-14.74,10.08Z"/></g></svg>