<?xml version="1.0" encoding="UTF-8"?><svg id="Layer_3" xmlns="http://www.w3.org/2000/svg" viewBox="0 0 38 38"><defs><style>.cls-1{fill:#fff;}</style></defs><g id="Camada_1"><path class="cls-1" d="M22.13,27.12h-4.66c-.17,0-.27-.05-.15-.23,.06-.1,.12-.19,.18-.29,1.18-1.9,2.37-3.79,3.54-5.69,.19-.31,.4-.48,.79-.52,2.33-.24,4.66-.52,6.99-.79,.13-.02,.27-.03,.39-.07,.29-.09,.45-.3,.44-.53,0-.23-.17-.44-.45-.53-.18-.06-.37-.09-.56-.11-1.63-.2-3.27-.39-4.9-.59-.84-.1-.66-.14-.34-.65,1.57-2.5,3.13-5,4.7-7.51,.11-.18,.22-.36,.32-.54,.08-.15,.14-.31,.13-.49-.02-.43-.37-.64-.75-.44-.24,.12-.42,.32-.6,.52l-6.12,6.48c-.58,.61-.51,.6-.81-.16-.59-1.5-1.18-2.99-1.77-4.49-.07-.18-.14-.35-.24-.51-.17-.28-.43-.41-.65-.35-.23,.06-.39,.32-.39,.63,0,.13,.02,.26,.04,.39,.33,2.27,.65,4.53,.98,6.8,.06,.42-.02,.74-.33,1.06-1.53,1.57-3.03,3.18-4.54,4.77-.08,.08-.15,.17-.24,.25-.21,.2-.24,.2-.32-.08-.41-1.53-.82-3.07-1.22-4.61l-1.08-4.17c-.07-.26-.14-.51-.35-.7-.33-.28-.71-.19-.87,.21-.08,.2-.06,.41-.04,.62l.42,4.35c.17,1.77,.34,3.54,.5,5.31,.05,.55,.09,1.09,.15,1.64,.03,.25-.02,.43-.2,.61-1.09,1.13-2.16,2.28-3.24,3.42-.28,.29-.29,.29-.56-.01-1.57-1.8-2.65-3.87-3.19-6.2-1.03-4.52-.34-8.75,2.3-12.62,1.18-1.73,2.73-3.06,4.52-4.15,3.17-1.93,6.61-3.17,10.2-4.02,2.75-.65,5.52-1.17,8.33-1.42,1.53-.13,3.06-.19,4.6-.17,.42,0,.43,0,.53,.42,.41,1.54,.75,3.09,1,4.66,.59,3.73,.8,7.49,.7,11.26-.06,2.31-.26,4.61-.89,6.85-.58,2.04-1.47,3.94-2.68,5.67-1.97,2.81-4.69,4.6-7.97,5.49-3.69,1-7.31,.7-10.8-.89-.12-.05-.24-.11-.36-.18-.1-.05-.11-.14-.06-.24,.05-.1,.12-.2,.18-.29,.75-1.21,1.51-2.41,2.24-3.62,.18-.3,.4-.44,.76-.49,2.66-.4,5.31-.83,7.96-1.24,.99-.16,1.98-.31,2.97-.47,.19-.03,.38-.07,.55-.13,.28-.11,.45-.37,.43-.61-.02-.28-.21-.43-.45-.53-.22-.09-.44-.08-.67-.08h-4.39Z"/></g></svg>