<?xml version="1.0" encoding="UTF-8"?><svg id="Layer_3" xmlns="http://www.w3.org/2000/svg" viewBox="0 0 38 38"><defs><style>.cls-1{fill:#fff;}</style></defs><g id="Camada_1"><path class="cls-1" d="M32.43,30.93c-.16,.23-.4,.36-.61,.51-2.25,1.58-4.76,2.55-7.46,3.01-1.46,.25-2.93,.33-4.4,.25-3.4-.17-6.59-1.03-9.42-2.99-3.19-2.19-5.18-5.19-6.04-8.95-.36-1.55-.48-3.13-.37-4.71,.18-2.76,.88-5.38,2.38-7.72,1.93-3.04,4.65-5.09,8.08-6.2,1.96-.64,3.97-.94,6.03-.84,3.15,.15,6.02,1.12,8.51,3.09,1.96,1.55,3.28,3.55,4.06,5.9,1.15,3.47,.94,6.85-.74,10.12-.55,1.08-1.36,1.94-2.24,2.74-1.61,1.47-3.47,2.5-5.63,2.88-3.17,.56-6.04-.12-8.47-2.31-1.54-1.39-2.41-3.15-2.68-5.2-.17-1.31-.1-2.6,.34-3.84,.91-2.56,2.76-4.08,5.39-4.63,1.63-.35,3.22-.16,4.66,.75,1.54,.96,2.38,2.4,2.62,4.16,.3,2.17-1.29,4.3-3.47,4.78-.64,.14-1.28,.15-1.93,0-1.24-.3-2.25-1.38-2.44-2.63-.08-.48,0-.95,.12-1.41,.07-.29,.28-.41,.53-.35,.24,.06,.38,.26,.34,.54-.03,.22-.06,.44-.03,.66,.15,1.21,1.19,1.94,2.44,1.71,.03,0,.06-.01,.09-.02,2.18-.46,2.4-2.71,1.63-4-.54-.91-1.37-1.42-2.4-1.63-2.08-.42-3.8,.88-4.45,2.4-.81,1.9-.49,3.67,.85,5.22,1.83,2.12,4.96,2.64,7.44,1.24,2.11-1.19,3.39-2.99,3.7-5.39,.31-2.39-.31-4.52-1.94-6.37-1.47-1.66-3.29-2.61-5.43-2.95-5.29-.85-9.74,1.88-11.64,6.54-.79,1.93-1.03,3.94-.8,6.01,.34,3.16,1.63,5.86,3.92,8.07,2.01,1.94,4.41,3.17,7.16,3.67,4.14,.75,8.05,0,11.77-1.91,.17-.09,.32-.22,.52-.2h0Z"/></g></svg>