<?xml version="1.0" encoding="UTF-8"?><svg id="Layer_2" xmlns="http://www.w3.org/2000/svg" viewBox="0 0 34.76 33.39"><defs><style>.cls-1{fill:#fff;}</style></defs><g id="Camada_1"><path class="cls-1" d="M17.55,0c4.15,.07,8.14,1.22,11.62,3.91,2.27,1.76,3.99,3.95,4.89,6.69,1.37,4.15,.68,8.02-1.81,11.58-.82,1.17-1.81,2.19-2.94,3.06-.33,.26-.4,.49-.29,.9,.42,1.56,.31,3.1-.34,4.58-.36,.81-.86,1.51-1.59,2.03-1.2,.84-2.64,.84-3.83,0-.84-.6-1.37-1.43-1.74-2.37-.06-.16-.07-.44-.22-.44-.22,0-.18,.3-.25,.46-.34,.84-.83,1.56-1.57,2.1-1.4,1.01-3.23,.9-4.51-.25-.59-.53-1.02-1.18-1.29-1.93-.04-.12-.08-.24-.13-.35-.04-.08-.11-.09-.15,0-.07,.14-.12,.29-.18,.44-.28,.74-.69,1.4-1.26,1.95-1.41,1.36-3.36,1.36-4.76-.02-1.02-1-1.51-2.26-1.65-3.66-.09-.9-.06-1.81,.22-2.69,.1-.31,.01-.48-.23-.67-1.49-1.15-2.73-2.53-3.7-4.15C.55,19.03-.09,16.69,.01,14.18c.13-3.06,1.26-5.73,3.24-8.04C5.58,3.42,8.53,1.71,11.95,.74,13.71,.24,15.52,.02,17.55,0Zm-.19,22.6c1.36,0,2.69-.18,3.99-.58,1.87-.58,3.52-1.51,4.83-2.99,2.22-2.51,2.3-5.81,.19-8.42-.68-.84-1.5-1.51-2.42-2.06-1.68-1-3.5-1.52-5.44-1.68-2.46-.2-4.81,.2-7.03,1.31-1.62,.81-2.98,1.94-3.85,3.56-1,1.86-1.05,3.76-.13,5.67,.74,1.54,1.94,2.66,3.39,3.51,2,1.17,4.17,1.67,6.47,1.67Z"/></g></svg>