<?xml version="1.0" encoding="UTF-8"?><svg id="Layer_3" xmlns="http://www.w3.org/2000/svg" viewBox="0 0 38 38"><defs><style>.cls-1{fill:#fff;}</style></defs><g id="Camada_1"><path class="cls-1" d="M32.77,18.32c0,.2-.12,.36-.2,.53-1.43,2.85-5.09,5.33-8.62,5.32-.74,0-1.49,0-2.23-.05-.07,0-.19,.02-.2,.06-.04,.12,.08,.16,.16,.18,.82,.25,1.66,.45,2.51,.59,1.24,.18,2.47,.16,3.71-.09,1.26-.26,2.34-.89,3.35-1.69,.15-.12,.26-.32,.49-.31-.09,.16-.16,.34-.26,.5-1.24,2.26-3.22,3.39-5.7,3.75-.69,.11-1.37,.12-2.06,.13-.15,0-.31,0-.45,0-.05,0-.14,0-.12,.1,0,.05,.06,.11,.1,.13,.13,.06,.25,.1,.38,.14,.27,.09,.55,.15,.82,.24,.29,.1,.31,.12,.17,.41-.48,1.07-1.1,2.05-1.87,2.93-1.97,2.29-4.44,3.72-7.4,4.24-6.95,1.19-13.25-3.4-14.5-10C-.43,18.75,3.71,12.41,10.33,10.84c.97-.23,1.96-.33,2.95-.33,1.95,0,3.9,.04,5.85,0,3.46-.09,6.88-.56,10.21-1.57,.98-.3,1.94-.69,2.85-1.21,1.51-.85,2.71-2.04,3.72-3.43,.42-.59,.82-1.2,1.24-1.79,.04-.06,.08-.14,.17-.12,.09,.03,.07,.13,.07,.19-.05,1.24-.16,2.48-.41,3.7-.47,2.37-1.32,4.63-2.56,6.72-1.9,3.19-4.67,5.3-8.26,6.29-.93,.26-1.88,.34-2.84,.38-1.41,.07-2.83,.09-4.23-.18l-.23-.03c-.06,0-.12,0-.13,.07,0,.03,.03,.07,.06,.09,.07,.04,.14,.07,.2,.1,2.21,.94,4.5,1.46,6.92,1.24,1.52-.14,3.02-.43,4.45-1.02,.82-.34,1.56-.79,2.17-1.45,.07-.07,.14-.12,.22-.17h0Z"/></g></svg>