<?xml version="1.0" encoding="UTF-8"?><svg id="Layer_2" xmlns="http://www.w3.org/2000/svg" viewBox="0 0 38.1 34.44"><defs><style>.cls-1{fill:#fff;}</style></defs><g id="Camada_1"><path class="cls-1" d="M33.33,16.51c.01,.21-.12,.37-.21,.55-1.48,2.95-5.28,5.52-8.93,5.51-.77,0-1.54,0-2.31-.05-.07,0-.2,.02-.21,.06-.04,.12,.08,.17,.17,.19,.85,.26,1.72,.47,2.6,.61,1.28,.19,2.56,.17,3.84-.09,1.31-.27,2.43-.92,3.47-1.75,.16-.12,.27-.33,.51-.32-.09,.17-.17,.35-.27,.52-1.28,2.34-3.34,3.51-5.91,3.89-.71,.11-1.42,.12-2.13,.13-.16,0-.32,0-.47,.01-.05,0-.14,.01-.12,.1,.01,.05,.06,.11,.1,.13,.13,.06,.26,.1,.39,.14,.28,.09,.57,.16,.85,.25,.3,.1,.32,.12,.18,.42-.5,1.11-1.14,2.12-1.94,3.04-2.04,2.37-4.6,3.86-7.67,4.39-7.2,1.23-13.73-3.52-15.03-10.36-1.31-6.92,2.98-13.49,9.84-15.12,1.01-.24,2.03-.34,3.06-.34,2.02,0,4.04,.04,6.06,0,3.59-.09,7.13-.58,10.58-1.63,1.02-.31,2.01-.72,2.95-1.25,1.56-.88,2.81-2.11,3.86-3.55,.44-.61,.85-1.24,1.28-1.86,.04-.06,.08-.15,.18-.12,.09,.03,.07,.13,.07,.2-.05,1.29-.17,2.57-.42,3.83-.49,2.46-1.37,4.8-2.65,6.96-1.97,3.31-4.84,5.49-8.56,6.52-.96,.27-1.95,.35-2.94,.39-1.46,.07-2.93,.09-4.38-.19-.08-.01-.16-.02-.24-.03-.06,0-.12,0-.13,.07,0,.03,.03,.07,.06,.09,.07,.04,.14,.07,.21,.1,2.29,.97,4.66,1.51,7.17,1.29,1.58-.14,3.13-.45,4.61-1.06,.85-.35,1.62-.82,2.25-1.5,.07-.07,.15-.12,.23-.18h0Z"/></g></svg>