<?xml version="1.0" encoding="UTF-8"?><svg id="Layer_2" xmlns="http://www.w3.org/2000/svg" viewBox="0 0 23.32 34.86"><defs><style>.cls-1{fill:#fff;}</style></defs><g id="Camada_1"><path class="cls-1" d="M11.77,34.86c-5.86-.07-10.37-4.02-11.5-9.18-.51-2.33-.29-4.61,.56-6.84,1.3-3.42,3.02-6.62,4.96-9.71,1.7-2.7,3.43-5.38,5.14-8.07,.2-.31,.39-.63,.58-.94,.1-.16,.19-.16,.29,0,.03,.04,.05,.09,.08,.13,1.84,3.03,3.83,5.95,5.7,8.97,1.69,2.73,3.26,5.53,4.46,8.51,.47,1.18,.95,2.35,1.14,3.62,.51,3.5-.34,6.64-2.61,9.35-2.11,2.52-4.85,3.86-8.13,4.11-.27,.02-.53,.04-.67,.05Zm-.75-3.68c1.2,0,2.33-.25,3.36-.85,2.02-1.18,3.18-2.91,3.27-5.28,0-.18,.08-.48-.06-.51-.22-.05-.24,.26-.33,.42-1.16,2.01-2.9,3.12-5.21,3.22-3.6,.14-6.44-2.8-6.36-6.23,0-.13,.01-.27,0-.4,0-.04-.01-.11-.04-.13-.08-.05-.12,.02-.16,.07-.05,.07-.1,.13-.14,.21-1.22,2.03-1.33,4.12-.15,6.18,1.27,2.22,3.29,3.23,5.8,3.3Z"/></g></svg>