<?xml version="1.0" encoding="UTF-8"?><svg id="Layer_3" xmlns="http://www.w3.org/2000/svg" viewBox="0 0 38 38"><defs><style>.cls-1{fill:#fff;}</style></defs><g id="Camada_1"><path class="cls-1" d="M19.12,37.42c-6.19-.07-10.96-4.25-12.15-9.7-.54-2.46-.31-4.87,.59-7.23,1.37-3.61,3.19-6.99,5.24-10.26,1.8-2.85,3.62-5.68,5.43-8.53,.21-.33,.41-.67,.61-.99,.11-.17,.2-.17,.31,0,.03,.04,.05,.1,.08,.14,1.94,3.2,4.05,6.29,6.02,9.48,1.79,2.88,3.44,5.84,4.71,8.99,.5,1.25,1,2.48,1.2,3.82,.54,3.7-.36,7.02-2.76,9.88-2.23,2.66-5.12,4.08-8.59,4.34-.29,.02-.56,.04-.71,.05Zm-.79-3.89c1.27,0,2.46-.26,3.55-.9,2.13-1.25,3.36-3.07,3.45-5.58,0-.19,.08-.51-.06-.54-.23-.05-.25,.27-.35,.44-1.23,2.12-3.06,3.3-5.5,3.4-3.8,.15-6.8-2.96-6.72-6.58,0-.14,.01-.29,0-.42,0-.04-.01-.12-.04-.14-.08-.05-.13,.02-.17,.07-.05,.07-.11,.14-.15,.22-1.29,2.14-1.41,4.35-.16,6.53,1.34,2.35,3.48,3.41,6.13,3.49h.02Z"/></g></svg>